# xmcd
#
# Track frame offsets:
#	150
#	26417
#	57690
#	79867
#	116180
#	150095
#	220605
#	229930
#	249105
#
# Disc length: 3705 seconds
#
# Revision: 1
# Processed by: cddbd v1.5.2PL0 Copyright (c) Steve Scherf et al.
# Submitted via: audiograbber 1.83.01
#
DISCID=6a0e7709
DTITLE=Jim Kahr - Incredibly Live!
DYEAR=1996
DGENRE=Blues
TTITLE0=As The Years Go Passing By
TTITLE1=Walking Blues
TTITLE2=I'll Play The Blues For You
TTITLE3=It's A Man's World
TTITLE4=Don't Know What Love Is
TTITLE5=Cookin' Boogie/Hey Joe
TTITLE6=Driftin' Mandolin
TTITLE7=Born Under A Bad Sign
TTITLE8=Keep 'em Hot!!!!
EXTD=
EXTT0=
EXTT1=
EXTT2=
EXTT3=
EXTT4=
EXTT5=
EXTT6=
EXTT7=
EXTT8=
PLAYORDER=
